%FSLAX44Y44*%
%MOMM*%
G71*
G01*
G75*
G04 Layer_Color=16711935*
%ADD10R,1.3000X1.3000*%
%ADD11R,0.8500X1.0000*%
%ADD12R,0.8500X1.0000*%
%ADD13R,1.9998X1.3995*%
%ADD14R,1.9998X1.3995*%
%ADD15R,3.1000X2.3000*%
%ADD16R,1.6000X1.8000*%
%ADD17R,1.3000X1.3000*%
%ADD18R,1.8000X0.4995*%
%ADD19R,1.2700X1.2700*%
%ADD20R,1.2700X1.2700*%
%ADD21R,0.3000X1.0000*%
%ADD22R,1.5000X1.5000*%
%ADD23R,0.8000X2.0000*%
%ADD24R,1.3995X1.9998*%
%ADD25R,1.3995X1.9998*%
%ADD26C,0.3000*%
%ADD27C,0.4000*%
%ADD28C,0.5000*%
%ADD29C,0.2000*%
%ADD30C,1.5000*%
%ADD31C,3.0000*%
%ADD32R,1.5000X1.5000*%
%ADD33C,1.5000*%
%ADD34R,1.8000X1.8000*%
%ADD35C,1.8000*%
%ADD36C,1.6000*%
%ADD37C,6.0000*%
%ADD38C,4.0000*%
%ADD39C,0.8000*%
%ADD40C,0.2500*%
%ADD41C,0.2540*%
%ADD42C,0.1524*%
%ADD43C,0.0999*%
%ADD44R,1.0500X1.2000*%
%ADD45R,1.0500X1.2000*%
%ADD46R,2.1998X1.5995*%
%ADD47R,2.1998X1.5995*%
%ADD48R,3.3000X2.5000*%
%ADD49R,1.8000X2.0000*%
%ADD50R,2.0000X0.6995*%
%ADD51R,1.4700X1.4700*%
%ADD52R,1.4700X1.4700*%
%ADD53R,0.5000X1.2000*%
%ADD54R,1.7000X1.7000*%
%ADD55R,1.0000X2.2000*%
%ADD56R,1.5995X2.1998*%
%ADD57R,1.5995X2.1998*%
%ADD58C,3.2000*%
%ADD59R,1.7000X1.7000*%
%ADD60C,1.7000*%
%ADD61R,2.0000X2.0000*%
%ADD62C,2.0000*%
%ADD63C,6.2000*%
%ADD64C,4.2000*%
D35*
X1020000Y425000D02*
D03*
X751000Y412300D02*
D03*
Y437700D02*
D03*
D54*
X168700Y657300D02*
D03*
X1267200Y437700D02*
D03*
D58*
X1203300Y46000D02*
D03*
X1101700D02*
D03*
X1152500D02*
D03*
X1356700D02*
D03*
X1255100D02*
D03*
X1305900D02*
D03*
X1508100D02*
D03*
X1406500D02*
D03*
X1457300D02*
D03*
X1406500Y804000D02*
D03*
X1508100D02*
D03*
X1457300D02*
D03*
X1255100D02*
D03*
X1356700D02*
D03*
X1305900D02*
D03*
X1101700D02*
D03*
X1203300D02*
D03*
X1152500D02*
D03*
X346700D02*
D03*
X448300D02*
D03*
X397500D02*
D03*
X194300D02*
D03*
X295900D02*
D03*
X245100D02*
D03*
X41900D02*
D03*
X143500D02*
D03*
X92700D02*
D03*
X448300Y46000D02*
D03*
X346700D02*
D03*
X397500D02*
D03*
X295900D02*
D03*
X194300D02*
D03*
X245100D02*
D03*
X143500D02*
D03*
X41900D02*
D03*
X92700D02*
D03*
X978200D02*
D03*
X876600D02*
D03*
X927400D02*
D03*
X825800D02*
D03*
X724200D02*
D03*
X775000D02*
D03*
X673400D02*
D03*
X571800D02*
D03*
X622600D02*
D03*
X571800Y804000D02*
D03*
X673400D02*
D03*
X622600D02*
D03*
X724200D02*
D03*
X825800D02*
D03*
X775000D02*
D03*
X876600D02*
D03*
X978200D02*
D03*
X927400D02*
D03*
D59*
X153500Y388900D02*
D03*
D60*
X228500D02*
D03*
Y465100D02*
D03*
X153500D02*
D03*
X194100Y657300D02*
D03*
X244900D02*
D03*
X219500D02*
D03*
X295700D02*
D03*
X270300D02*
D03*
X346500D02*
D03*
X321100D02*
D03*
X219500Y682700D02*
D03*
X270300D02*
D03*
X244900D02*
D03*
X194100D02*
D03*
X168700D02*
D03*
X295700D02*
D03*
X371900Y657300D02*
D03*
X321100Y682700D02*
D03*
X371900D02*
D03*
X346500D02*
D03*
X473500Y657300D02*
D03*
X524300D02*
D03*
X498900D02*
D03*
X397300D02*
D03*
X448100D02*
D03*
X422700D02*
D03*
X549700D02*
D03*
X575100D02*
D03*
X625900D02*
D03*
X651300D02*
D03*
X473500Y682700D02*
D03*
X524300D02*
D03*
X498900D02*
D03*
X397300D02*
D03*
X448100D02*
D03*
X422700D02*
D03*
X549700D02*
D03*
X600500Y657300D02*
D03*
X575100Y682700D02*
D03*
X625900D02*
D03*
X600500D02*
D03*
X651300D02*
D03*
X1114800Y412300D02*
D03*
Y437700D02*
D03*
X1140200Y412300D02*
D03*
Y437700D02*
D03*
X1165600Y412300D02*
D03*
Y437700D02*
D03*
X1191000Y412300D02*
D03*
Y437700D02*
D03*
X1216400Y412300D02*
D03*
Y437700D02*
D03*
X1241800Y412300D02*
D03*
Y437700D02*
D03*
X1267200Y412300D02*
D03*
D61*
X297300Y312800D02*
D03*
D62*
X322700D02*
D03*
X348100D02*
D03*
X500500D02*
D03*
X551300D02*
D03*
Y465200D02*
D03*
X500500D02*
D03*
X348100D02*
D03*
X322700D02*
D03*
D63*
X1490000Y160000D02*
D03*
Y690000D02*
D03*
X60000Y160000D02*
D03*
Y690000D02*
D03*
D64*
X700000Y670000D02*
D03*
X120000Y180000D02*
D03*
X700000D02*
D03*
M02*
