%FSLAX44Y44*%
%MOMM*%
G71*
G01*
G75*
G04 Layer_Physical_Order=1*
G04 Layer_Color=255*
%ADD10R,1.3000X1.3000*%
%ADD11R,0.8500X1.0000*%
%ADD12R,0.8500X1.0000*%
%ADD13R,1.9998X1.3995*%
%ADD14R,1.9998X1.3995*%
%ADD15R,3.1000X2.3000*%
%ADD16R,1.6000X1.8000*%
%ADD17R,1.3000X1.3000*%
%ADD18R,1.8000X0.4995*%
%ADD19R,1.2700X1.2700*%
%ADD20R,1.2700X1.2700*%
%ADD21R,0.3000X1.0000*%
%ADD22R,1.5000X1.5000*%
%ADD23R,0.8000X2.0000*%
%ADD24R,1.3995X1.9998*%
%ADD25R,1.3995X1.9998*%
%ADD26C,0.3000*%
%ADD27C,0.4000*%
%ADD28C,0.5000*%
%ADD29C,0.2000*%
%ADD30C,1.5000*%
%ADD31C,3.0000*%
%ADD32R,1.5000X1.5000*%
%ADD33C,1.5000*%
%ADD34R,1.8000X1.8000*%
%ADD35C,1.8000*%
%ADD36C,1.6000*%
%ADD37C,6.0000*%
%ADD38C,4.0000*%
%ADD39C,0.8000*%
G36*
X369000Y430000D02*
X209000D01*
Y500000D01*
X369000D01*
Y430000D01*
D02*
G37*
G36*
Y340000D02*
Y290000D01*
X309000D01*
Y300800D01*
X309300D01*
Y305539D01*
X312218Y306748D01*
X314142Y304242D01*
X316648Y302318D01*
X319567Y301109D01*
X321700Y300828D01*
Y312800D01*
Y324772D01*
X319567Y324491D01*
X316648Y323282D01*
X314142Y321358D01*
X312218Y318852D01*
X309300Y320061D01*
Y324800D01*
X309000D01*
Y335000D01*
X284000Y360000D01*
X209000D01*
Y400000D01*
X221051D01*
X222015Y397159D01*
X221011Y396389D01*
X219328Y394195D01*
X218270Y391641D01*
X218041Y389900D01*
X238959D01*
X238730Y391641D01*
X237672Y394195D01*
X235989Y396389D01*
X234984Y397159D01*
X235949Y400000D01*
X309000D01*
X369000Y340000D01*
D02*
G37*
G36*
X207500Y684295D02*
X206050Y684200D01*
Y684200D01*
X204506Y684099D01*
X204330Y685441D01*
X203272Y687995D01*
X201589Y690189D01*
X199395Y691872D01*
X196841Y692930D01*
X195100Y693159D01*
Y682700D01*
Y672241D01*
X196841Y672470D01*
X199395Y673528D01*
X201589Y675211D01*
X203272Y677405D01*
X204330Y679959D01*
X204506Y681301D01*
X206050Y681200D01*
Y681200D01*
X207500Y681105D01*
Y658895D01*
X206050Y658800D01*
Y658800D01*
X204506Y658699D01*
X204330Y660041D01*
X203272Y662595D01*
X201589Y664789D01*
X199395Y666472D01*
X196841Y667530D01*
X194100Y667891D01*
X191359Y667530D01*
X188805Y666472D01*
X186611Y664789D01*
X184928Y662595D01*
X183870Y660041D01*
X183509Y657300D01*
X183870Y654559D01*
X184928Y652005D01*
X186611Y649811D01*
X188805Y648128D01*
X191359Y647070D01*
X194100Y646709D01*
X196841Y647070D01*
X199395Y648128D01*
X201589Y649811D01*
X203272Y652005D01*
X204330Y654559D01*
X204506Y655901D01*
X206050Y655800D01*
Y655800D01*
X207500Y655705D01*
Y510000D01*
X150000D01*
Y700000D01*
X207500D01*
Y684295D01*
D02*
G37*
G36*
X320000Y750000D02*
X160000D01*
X140000Y730000D01*
Y535000D01*
X100000Y495000D01*
Y444000D01*
X44000D01*
Y624000D01*
X70000Y650000D01*
Y658463D01*
X70229Y658518D01*
X75028Y660506D01*
X79457Y663220D01*
X83407Y666593D01*
X86780Y670543D01*
X89494Y674972D01*
X91482Y679771D01*
X92695Y684822D01*
X93102Y690000D01*
X92695Y695178D01*
X91482Y700229D01*
X89494Y705028D01*
X86780Y709457D01*
X83407Y713407D01*
X79457Y716780D01*
X75028Y719494D01*
X70229Y721482D01*
X70000Y721537D01*
Y840000D01*
X320000D01*
Y750000D01*
D02*
G37*
G36*
X180000Y280000D02*
X75000D01*
Y366000D01*
X109000D01*
Y380000D01*
X139000Y410000D01*
X180000D01*
Y280000D01*
D02*
G37*
G36*
X179000Y456000D02*
X105000Y382000D01*
Y370000D01*
X71000D01*
Y280000D01*
X19000D01*
Y430000D01*
X109000D01*
X119000Y440000D01*
Y480000D01*
X139000Y500000D01*
X179000D01*
Y456000D01*
D02*
G37*
%LPC*%
G36*
X134919Y329000D02*
X130000D01*
Y324081D01*
X131341Y324348D01*
X133326Y325674D01*
X134652Y327659D01*
X134919Y329000D01*
D02*
G37*
G36*
X128000D02*
X123081D01*
X123348Y327659D01*
X124674Y325674D01*
X126659Y324348D01*
X128000Y324081D01*
Y329000D01*
D02*
G37*
G36*
X347100Y324772D02*
X344967Y324491D01*
X342048Y323282D01*
X339542Y321358D01*
X337618Y318852D01*
X336900Y317118D01*
X333900D01*
X333182Y318852D01*
X331259Y321358D01*
X328752Y323282D01*
X325833Y324491D01*
X323700Y324772D01*
Y312800D01*
Y300828D01*
X325833Y301109D01*
X328752Y302318D01*
X331259Y304242D01*
X333182Y306748D01*
X333900Y308482D01*
X336900D01*
X337618Y306748D01*
X339542Y304242D01*
X342048Y302318D01*
X344967Y301109D01*
X347100Y300828D01*
Y312800D01*
Y324772D01*
D02*
G37*
G36*
X168000Y329000D02*
X163081D01*
X163348Y327659D01*
X164674Y325674D01*
X166659Y324348D01*
X168000Y324081D01*
Y329000D01*
D02*
G37*
G36*
X154919D02*
X150000D01*
Y324081D01*
X151341Y324348D01*
X153326Y325674D01*
X154652Y327659D01*
X154919Y329000D01*
D02*
G37*
G36*
X148000D02*
X143081D01*
X143348Y327659D01*
X144674Y325674D01*
X146659Y324348D01*
X148000Y324081D01*
Y329000D01*
D02*
G37*
G36*
X150000Y315919D02*
Y311000D01*
X154919D01*
X154652Y312341D01*
X153326Y314326D01*
X151341Y315652D01*
X150000Y315919D01*
D02*
G37*
G36*
X148000D02*
X146659Y315652D01*
X144674Y314326D01*
X143348Y312341D01*
X143081Y311000D01*
X148000D01*
Y315919D01*
D02*
G37*
G36*
X130000D02*
Y311000D01*
X134919D01*
X134652Y312341D01*
X133326Y314326D01*
X131341Y315652D01*
X130000Y315919D01*
D02*
G37*
G36*
X349100Y324772D02*
Y313800D01*
X360072D01*
X359791Y315933D01*
X358582Y318852D01*
X356659Y321358D01*
X354152Y323282D01*
X351233Y324491D01*
X349100Y324772D01*
D02*
G37*
G36*
X170000Y315919D02*
Y311000D01*
X174919D01*
X174652Y312341D01*
X173326Y314326D01*
X171341Y315652D01*
X170000Y315919D01*
D02*
G37*
G36*
X168000D02*
X166659Y315652D01*
X164674Y314326D01*
X163348Y312341D01*
X163081Y311000D01*
X168000D01*
Y315919D01*
D02*
G37*
G36*
X174919Y329000D02*
X170000D01*
Y324081D01*
X171341Y324348D01*
X173326Y325674D01*
X174652Y327659D01*
X174919Y329000D01*
D02*
G37*
G36*
X168000Y335919D02*
X166659Y335652D01*
X164674Y334326D01*
X163348Y332341D01*
X163081Y331000D01*
X168000D01*
Y335919D01*
D02*
G37*
G36*
X150000D02*
Y331000D01*
X154919D01*
X154652Y332341D01*
X153326Y334326D01*
X151341Y335652D01*
X150000Y335919D01*
D02*
G37*
G36*
X57000Y360000D02*
X48000D01*
Y350000D01*
X57000D01*
Y360000D01*
D02*
G37*
G36*
X68000Y348000D02*
X59000D01*
Y338000D01*
X68000D01*
Y348000D01*
D02*
G37*
G36*
X57000D02*
X48000D01*
Y338000D01*
X57000D01*
Y348000D01*
D02*
G37*
G36*
X170000Y335919D02*
Y331000D01*
X174919D01*
X174652Y332341D01*
X173326Y334326D01*
X171341Y335652D01*
X170000Y335919D01*
D02*
G37*
G36*
X87000Y348000D02*
X78000D01*
Y338000D01*
X87000D01*
Y348000D01*
D02*
G37*
G36*
X128000Y335919D02*
X126659Y335652D01*
X124674Y334326D01*
X123348Y332341D01*
X123081Y331000D01*
X128000D01*
Y335919D01*
D02*
G37*
G36*
X98000Y348000D02*
X89000D01*
Y338000D01*
X98000D01*
Y348000D01*
D02*
G37*
G36*
X148000Y335919D02*
X146659Y335652D01*
X144674Y334326D01*
X143348Y332341D01*
X143081Y331000D01*
X148000D01*
Y335919D01*
D02*
G37*
G36*
X130000D02*
Y331000D01*
X134919D01*
X134652Y332341D01*
X133326Y334326D01*
X131341Y335652D01*
X130000Y335919D01*
D02*
G37*
G36*
X68000Y360000D02*
X59000D01*
Y350000D01*
X68000D01*
Y360000D01*
D02*
G37*
G36*
X150000Y295919D02*
Y291000D01*
X154919D01*
X154652Y292341D01*
X153326Y294326D01*
X151341Y295652D01*
X150000Y295919D01*
D02*
G37*
G36*
X148000D02*
X146659Y295652D01*
X144674Y294326D01*
X143348Y292341D01*
X143081Y291000D01*
X148000D01*
Y295919D01*
D02*
G37*
G36*
X130000D02*
Y291000D01*
X134919D01*
X134652Y292341D01*
X133326Y294326D01*
X131341Y295652D01*
X130000Y295919D01*
D02*
G37*
G36*
X168000D02*
X166659Y295652D01*
X164674Y294326D01*
X163348Y292341D01*
X163081Y291000D01*
X168000D01*
Y295919D01*
D02*
G37*
G36*
X58046Y309000D02*
X50048D01*
Y298001D01*
X58046D01*
Y309000D01*
D02*
G37*
G36*
X48049D02*
X40051D01*
Y298001D01*
X48049D01*
Y309000D01*
D02*
G37*
G36*
X170000Y295919D02*
Y291000D01*
X174919D01*
X174652Y292341D01*
X173326Y294326D01*
X171341Y295652D01*
X170000Y295919D01*
D02*
G37*
G36*
X148000Y289000D02*
X143081D01*
X143348Y287659D01*
X144674Y285674D01*
X146659Y284348D01*
X148000Y284081D01*
Y289000D01*
D02*
G37*
G36*
X134919D02*
X130000D01*
Y284081D01*
X131341Y284348D01*
X133326Y285674D01*
X134652Y287659D01*
X134919Y289000D01*
D02*
G37*
G36*
X128000D02*
X123081D01*
X123348Y287659D01*
X124674Y285674D01*
X126659Y284348D01*
X128000Y284081D01*
Y289000D01*
D02*
G37*
G36*
X154919D02*
X150000D01*
Y284081D01*
X151341Y284348D01*
X153326Y285674D01*
X154652Y287659D01*
X154919Y289000D01*
D02*
G37*
G36*
X128000Y295919D02*
X126659Y295652D01*
X124674Y294326D01*
X123348Y292341D01*
X123081Y291000D01*
X128000D01*
Y295919D01*
D02*
G37*
G36*
X174919Y289000D02*
X170000D01*
Y284081D01*
X171341Y284348D01*
X173326Y285674D01*
X174652Y287659D01*
X174919Y289000D01*
D02*
G37*
G36*
X168000D02*
X163081D01*
X163348Y287659D01*
X164674Y285674D01*
X166659Y284348D01*
X168000Y284081D01*
Y289000D01*
D02*
G37*
G36*
X48049Y321999D02*
X40051D01*
Y311000D01*
X48049D01*
Y321999D01*
D02*
G37*
G36*
X174919Y309000D02*
X170000D01*
Y304081D01*
X171341Y304348D01*
X173326Y305674D01*
X174652Y307659D01*
X174919Y309000D01*
D02*
G37*
G36*
X168000D02*
X163081D01*
X163348Y307659D01*
X164674Y305674D01*
X166659Y304348D01*
X168000Y304081D01*
Y309000D01*
D02*
G37*
G36*
X58046Y321999D02*
X50048D01*
Y311000D01*
X58046D01*
Y321999D01*
D02*
G37*
G36*
X128000Y315919D02*
X126659Y315652D01*
X124674Y314326D01*
X123348Y312341D01*
X123081Y311000D01*
X128000D01*
Y315919D01*
D02*
G37*
G36*
X109998Y321999D02*
X102000D01*
Y311000D01*
X109998D01*
Y321999D01*
D02*
G37*
G36*
X100000D02*
X92002D01*
Y311000D01*
X100000D01*
Y321999D01*
D02*
G37*
G36*
X360072Y311800D02*
X349100D01*
Y300828D01*
X351233Y301109D01*
X354152Y302318D01*
X356659Y304242D01*
X358582Y306748D01*
X359791Y309667D01*
X360072Y311800D01*
D02*
G37*
G36*
X109998Y309000D02*
X102000D01*
Y298001D01*
X109998D01*
Y309000D01*
D02*
G37*
G36*
X100000D02*
X92002D01*
Y298001D01*
X100000D01*
Y309000D01*
D02*
G37*
G36*
X128000D02*
X123081D01*
X123348Y307659D01*
X124674Y305674D01*
X126659Y304348D01*
X128000Y304081D01*
Y309000D01*
D02*
G37*
G36*
X154919D02*
X150000D01*
Y304081D01*
X151341Y304348D01*
X153326Y305674D01*
X154652Y307659D01*
X154919Y309000D01*
D02*
G37*
G36*
X148000D02*
X143081D01*
X143348Y307659D01*
X144674Y305674D01*
X146659Y304348D01*
X148000Y304081D01*
Y309000D01*
D02*
G37*
G36*
X134919D02*
X130000D01*
Y304081D01*
X131341Y304348D01*
X133326Y305674D01*
X134652Y307659D01*
X134919Y309000D01*
D02*
G37*
G36*
X87000Y360000D02*
X78000D01*
Y350000D01*
X87000D01*
Y360000D01*
D02*
G37*
G36*
X193100Y693159D02*
X191359Y692930D01*
X188805Y691872D01*
X186611Y690189D01*
X184928Y687995D01*
X183870Y685441D01*
X183641Y683700D01*
X193100D01*
Y693159D01*
D02*
G37*
G36*
X169700D02*
Y683700D01*
X179159D01*
X178930Y685441D01*
X177872Y687995D01*
X176189Y690189D01*
X173995Y691872D01*
X171441Y692930D01*
X169700Y693159D01*
D02*
G37*
G36*
X167700D02*
X165959Y692930D01*
X163405Y691872D01*
X161211Y690189D01*
X159528Y687995D01*
X158470Y685441D01*
X158241Y683700D01*
X167700D01*
Y693159D01*
D02*
G37*
G36*
X161489Y803000D02*
X144500D01*
Y786011D01*
X147029Y786261D01*
X150422Y787290D01*
X153549Y788961D01*
X156290Y791210D01*
X158539Y793951D01*
X160210Y797078D01*
X161239Y800471D01*
X161489Y803000D01*
D02*
G37*
G36*
X142500D02*
X125511D01*
X125760Y800471D01*
X126790Y797078D01*
X128461Y793951D01*
X130710Y791210D01*
X133451Y788961D01*
X136578Y787290D01*
X139971Y786261D01*
X142500Y786011D01*
Y803000D01*
D02*
G37*
G36*
X92700Y822087D02*
X89171Y821740D01*
X85778Y820710D01*
X82651Y819039D01*
X79910Y816789D01*
X77661Y814049D01*
X75990Y810922D01*
X74960Y807529D01*
X74613Y804000D01*
X74960Y800471D01*
X75990Y797078D01*
X77661Y793951D01*
X79910Y791210D01*
X82651Y788961D01*
X85778Y787290D01*
X89171Y786261D01*
X92700Y785913D01*
X96229Y786261D01*
X99622Y787290D01*
X102749Y788961D01*
X105490Y791210D01*
X107739Y793951D01*
X109410Y797078D01*
X110440Y800471D01*
X110787Y804000D01*
X110440Y807529D01*
X109410Y810922D01*
X107739Y814049D01*
X105490Y816789D01*
X102749Y819039D01*
X99622Y820710D01*
X96229Y821740D01*
X92700Y822087D01*
D02*
G37*
G36*
X193100Y681700D02*
X183641D01*
X183870Y679959D01*
X184928Y677405D01*
X186611Y675211D01*
X188805Y673528D01*
X191359Y672470D01*
X193100Y672241D01*
Y681700D01*
D02*
G37*
G36*
X90500Y482500D02*
X73000D01*
Y469000D01*
X90500D01*
Y482500D01*
D02*
G37*
G36*
X71000D02*
X53500D01*
Y469000D01*
X71000D01*
Y482500D01*
D02*
G37*
G36*
X349100Y476163D02*
Y466200D01*
X359063D01*
X358817Y468072D01*
X357709Y470747D01*
X355945Y473045D01*
X353647Y474808D01*
X350972Y475917D01*
X349100Y476163D01*
D02*
G37*
G36*
X179159Y681700D02*
X169700D01*
Y672241D01*
X171441Y672470D01*
X173995Y673528D01*
X176189Y675211D01*
X177872Y677405D01*
X178930Y679959D01*
X179159Y681700D01*
D02*
G37*
G36*
X167700D02*
X158241D01*
X158470Y679959D01*
X159528Y677405D01*
X161211Y675211D01*
X163405Y673528D01*
X165959Y672470D01*
X167700Y672241D01*
Y681700D01*
D02*
G37*
G36*
X179200Y667800D02*
X158200D01*
Y646800D01*
X179200D01*
Y667800D01*
D02*
G37*
G36*
X193300Y803000D02*
X176311D01*
X176560Y800471D01*
X177590Y797078D01*
X179261Y793951D01*
X181511Y791210D01*
X184251Y788961D01*
X187378Y787290D01*
X190771Y786261D01*
X193300Y786011D01*
Y803000D01*
D02*
G37*
G36*
X244100Y821989D02*
X241571Y821740D01*
X238178Y820710D01*
X235051Y819039D01*
X232311Y816789D01*
X230061Y814049D01*
X228390Y810922D01*
X227360Y807529D01*
X227111Y805000D01*
X244100D01*
Y821989D01*
D02*
G37*
G36*
X195300D02*
Y805000D01*
X212289D01*
X212040Y807529D01*
X211010Y810922D01*
X209339Y814049D01*
X207090Y816789D01*
X204349Y819039D01*
X201222Y820710D01*
X197829Y821740D01*
X195300Y821989D01*
D02*
G37*
G36*
X193300D02*
X190771Y821740D01*
X187378Y820710D01*
X184251Y819039D01*
X181511Y816789D01*
X179261Y814049D01*
X177590Y810922D01*
X176560Y807529D01*
X176311Y805000D01*
X193300D01*
Y821989D01*
D02*
G37*
G36*
X296900D02*
Y805000D01*
X313889D01*
X313640Y807529D01*
X312610Y810922D01*
X310939Y814049D01*
X308689Y816789D01*
X305949Y819039D01*
X302822Y820710D01*
X299429Y821740D01*
X296900Y821989D01*
D02*
G37*
G36*
X294900D02*
X292371Y821740D01*
X288978Y820710D01*
X285851Y819039D01*
X283111Y816789D01*
X280861Y814049D01*
X279190Y810922D01*
X278160Y807529D01*
X277911Y805000D01*
X294900D01*
Y821989D01*
D02*
G37*
G36*
X246100D02*
Y805000D01*
X263089D01*
X262840Y807529D01*
X261810Y810922D01*
X260139Y814049D01*
X257889Y816789D01*
X255149Y819039D01*
X252022Y820710D01*
X248629Y821740D01*
X246100Y821989D01*
D02*
G37*
G36*
X144500D02*
Y805000D01*
X161489D01*
X161239Y807529D01*
X160210Y810922D01*
X158539Y814049D01*
X156290Y816789D01*
X153549Y819039D01*
X150422Y820710D01*
X147029Y821740D01*
X144500Y821989D01*
D02*
G37*
G36*
X263089Y803000D02*
X246100D01*
Y786011D01*
X248629Y786261D01*
X252022Y787290D01*
X255149Y788961D01*
X257889Y791210D01*
X260139Y793951D01*
X261810Y797078D01*
X262840Y800471D01*
X263089Y803000D01*
D02*
G37*
G36*
X244100D02*
X227111D01*
X227360Y800471D01*
X228390Y797078D01*
X230061Y793951D01*
X232311Y791210D01*
X235051Y788961D01*
X238178Y787290D01*
X241571Y786261D01*
X244100Y786011D01*
Y803000D01*
D02*
G37*
G36*
X212289D02*
X195300D01*
Y786011D01*
X197829Y786261D01*
X201222Y787290D01*
X204349Y788961D01*
X207090Y791210D01*
X209339Y793951D01*
X211010Y797078D01*
X212040Y800471D01*
X212289Y803000D01*
D02*
G37*
G36*
X142500Y821989D02*
X139971Y821740D01*
X136578Y820710D01*
X133451Y819039D01*
X130710Y816789D01*
X128461Y814049D01*
X126790Y810922D01*
X125760Y807529D01*
X125511Y805000D01*
X142500D01*
Y821989D01*
D02*
G37*
G36*
X313889Y803000D02*
X296900D01*
Y786011D01*
X299429Y786261D01*
X302822Y787290D01*
X305949Y788961D01*
X308689Y791210D01*
X310939Y793951D01*
X312610Y797078D01*
X313640Y800471D01*
X313889Y803000D01*
D02*
G37*
G36*
X294900D02*
X277911D01*
X278160Y800471D01*
X279190Y797078D01*
X280861Y793951D01*
X283111Y791210D01*
X285851Y788961D01*
X288978Y787290D01*
X292371Y786261D01*
X294900Y786011D01*
Y803000D01*
D02*
G37*
G36*
X347100Y476163D02*
X345228Y475917D01*
X342552Y474808D01*
X340255Y473045D01*
X338492Y470747D01*
X337383Y468072D01*
X337137Y466200D01*
X347100D01*
Y476163D01*
D02*
G37*
G36*
X71000Y407500D02*
X54500D01*
Y395000D01*
X71000D01*
Y407500D01*
D02*
G37*
G36*
X163000Y398400D02*
X154500D01*
Y389900D01*
X163000D01*
Y398400D01*
D02*
G37*
G36*
X152500D02*
X144000D01*
Y389900D01*
X152500D01*
Y398400D01*
D02*
G37*
G36*
X90500Y467000D02*
X73000D01*
Y453500D01*
X90500D01*
Y467000D01*
D02*
G37*
G36*
X71000D02*
X53500D01*
Y453500D01*
X71000D01*
Y467000D01*
D02*
G37*
G36*
X89500Y407500D02*
X73000D01*
Y395000D01*
X89500D01*
Y407500D01*
D02*
G37*
G36*
Y393000D02*
X73000D01*
Y380500D01*
X89500D01*
Y393000D01*
D02*
G37*
G36*
X238959Y387900D02*
X229500D01*
Y378441D01*
X231241Y378670D01*
X233795Y379728D01*
X235989Y381411D01*
X237672Y383605D01*
X238730Y386159D01*
X238959Y387900D01*
D02*
G37*
G36*
X227500D02*
X218041D01*
X218270Y386159D01*
X219328Y383605D01*
X221011Y381411D01*
X223205Y379728D01*
X225759Y378670D01*
X227500Y378441D01*
Y387900D01*
D02*
G37*
G36*
X98000Y360000D02*
X89000D01*
Y350000D01*
X98000D01*
Y360000D01*
D02*
G37*
G36*
X71000Y393000D02*
X54500D01*
Y380500D01*
X71000D01*
Y393000D01*
D02*
G37*
G36*
X163000Y387900D02*
X154500D01*
Y379400D01*
X163000D01*
Y387900D01*
D02*
G37*
G36*
X152500D02*
X144000D01*
Y379400D01*
X152500D01*
Y387900D01*
D02*
G37*
G36*
X321700Y464200D02*
X311737D01*
X311983Y462328D01*
X313092Y459652D01*
X314855Y457355D01*
X317153Y455592D01*
X319828Y454483D01*
X321700Y454237D01*
Y464200D01*
D02*
G37*
G36*
X227500Y474550D02*
X226020Y474355D01*
X223709Y473398D01*
X221725Y471875D01*
X220202Y469891D01*
X219244Y467580D01*
X219050Y466100D01*
X227500D01*
Y474550D01*
D02*
G37*
G36*
X154500D02*
Y466100D01*
X162950D01*
X162756Y467580D01*
X161798Y469891D01*
X160275Y471875D01*
X158291Y473398D01*
X155980Y474355D01*
X154500Y474550D01*
D02*
G37*
G36*
X152500D02*
X151020Y474355D01*
X148709Y473398D01*
X146725Y471875D01*
X145202Y469891D01*
X144244Y467580D01*
X144050Y466100D01*
X152500D01*
Y474550D01*
D02*
G37*
G36*
X323700Y476163D02*
Y466200D01*
X333663D01*
X333417Y468072D01*
X332309Y470747D01*
X330545Y473045D01*
X328247Y474808D01*
X325572Y475917D01*
X323700Y476163D01*
D02*
G37*
G36*
X321700D02*
X319828Y475917D01*
X317153Y474808D01*
X314855Y473045D01*
X313092Y470747D01*
X311983Y468072D01*
X311737Y466200D01*
X321700D01*
Y476163D01*
D02*
G37*
G36*
X229500Y474550D02*
Y466100D01*
X237950D01*
X237756Y467580D01*
X236798Y469891D01*
X235275Y471875D01*
X233291Y473398D01*
X230980Y474355D01*
X229500Y474550D01*
D02*
G37*
G36*
X237950Y464100D02*
X229500D01*
Y455650D01*
X230980Y455844D01*
X233291Y456802D01*
X235275Y458325D01*
X236798Y460309D01*
X237756Y462620D01*
X237950Y464100D01*
D02*
G37*
G36*
X359063Y464200D02*
X349100D01*
Y454237D01*
X350972Y454483D01*
X353647Y455592D01*
X355945Y457355D01*
X357709Y459652D01*
X358817Y462328D01*
X359063Y464200D01*
D02*
G37*
G36*
X347100D02*
X337137D01*
X337383Y462328D01*
X338492Y459652D01*
X340255Y457355D01*
X342552Y455592D01*
X345228Y454483D01*
X347100Y454237D01*
Y464200D01*
D02*
G37*
G36*
X333663D02*
X323700D01*
Y454237D01*
X325572Y454483D01*
X328247Y455592D01*
X330545Y457355D01*
X332309Y459652D01*
X333417Y462328D01*
X333663Y464200D01*
D02*
G37*
G36*
X227500Y464100D02*
X219050D01*
X219244Y462620D01*
X220202Y460309D01*
X221725Y458325D01*
X223709Y456802D01*
X226020Y455844D01*
X227500Y455650D01*
Y464100D01*
D02*
G37*
G36*
X162950D02*
X154500D01*
Y455650D01*
X155980Y455844D01*
X158291Y456802D01*
X160275Y458325D01*
X161798Y460309D01*
X162756Y462620D01*
X162950Y464100D01*
D02*
G37*
G36*
X152500D02*
X144050D01*
X144244Y462620D01*
X145202Y460309D01*
X146725Y458325D01*
X148709Y456802D01*
X151020Y455844D01*
X152500Y455650D01*
Y464100D01*
D02*
G37*
%LPD*%
D10*
X1135230Y291000D02*
D03*
X1157230D02*
D03*
X1273230D02*
D03*
X1295230D02*
D03*
X1411230D02*
D03*
X1433230D02*
D03*
X239000Y338000D02*
D03*
X217000D02*
D03*
X239000Y313000D02*
D03*
X217000D02*
D03*
X960000Y271000D02*
D03*
X982000D02*
D03*
X890000D02*
D03*
X912000D02*
D03*
X820000D02*
D03*
X842000D02*
D03*
X750000D02*
D03*
X772000D02*
D03*
X750000Y121000D02*
D03*
X772000D02*
D03*
X960000D02*
D03*
X982000D02*
D03*
X820000D02*
D03*
X842000D02*
D03*
X890000D02*
D03*
X912000D02*
D03*
X1082770Y559000D02*
D03*
X1060770D02*
D03*
X1220770D02*
D03*
X1198770D02*
D03*
X1358770D02*
D03*
X1336770D02*
D03*
X842500Y579000D02*
D03*
X820500D02*
D03*
X772500D02*
D03*
X750500D02*
D03*
X912500D02*
D03*
X890500D02*
D03*
X982500D02*
D03*
X960500D02*
D03*
X750000Y729000D02*
D03*
X772000D02*
D03*
X820000D02*
D03*
X842000D02*
D03*
X890000D02*
D03*
X912000D02*
D03*
X960000D02*
D03*
X982000D02*
D03*
D11*
X1103500Y302000D02*
D03*
X1094000Y278000D02*
D03*
X1241500Y302000D02*
D03*
X1232000Y278000D02*
D03*
X1379500Y302000D02*
D03*
X1370000Y278000D02*
D03*
X1114500Y548000D02*
D03*
X1124000Y572000D02*
D03*
X1252500Y548000D02*
D03*
X1262000Y572000D02*
D03*
X1390500Y548000D02*
D03*
X1400000Y572000D02*
D03*
D12*
X1084500Y302000D02*
D03*
X1222500D02*
D03*
X1360500D02*
D03*
X1133500Y548000D02*
D03*
X1271500D02*
D03*
X1409500D02*
D03*
D13*
X1201000Y656000D02*
D03*
X1339000D02*
D03*
X1063000Y246000D02*
D03*
X1201000D02*
D03*
X1339000D02*
D03*
X1063000Y656000D02*
D03*
D14*
X1201000Y604049D02*
D03*
X1339000D02*
D03*
X1063000Y194049D02*
D03*
X1201000D02*
D03*
X1339000D02*
D03*
X1063000Y604049D02*
D03*
D15*
X72000Y468000D02*
D03*
Y394000D02*
D03*
D16*
X349000Y519000D02*
D03*
X319000D02*
D03*
X348000Y258000D02*
D03*
X378000D02*
D03*
X88000Y349000D02*
D03*
X58000D02*
D03*
D17*
X702500Y420000D02*
D03*
Y442000D02*
D03*
X676500Y420000D02*
D03*
Y442000D02*
D03*
D18*
X664999Y343000D02*
D03*
Y355700D02*
D03*
Y368400D02*
D03*
Y381100D02*
D03*
X714000D02*
D03*
Y368400D02*
D03*
Y355700D02*
D03*
Y343000D02*
D03*
D19*
X629000Y372336D02*
D03*
Y351000D02*
D03*
D20*
X639000Y286000D02*
D03*
X660336D02*
D03*
X639000Y263000D02*
D03*
X660336D02*
D03*
D21*
X692000Y309000D02*
D03*
X686000D02*
D03*
D22*
X747300Y148000D02*
D03*
X772700D02*
D03*
Y244000D02*
D03*
X747300D02*
D03*
X957300Y148000D02*
D03*
X982700D02*
D03*
Y244000D02*
D03*
X957300D02*
D03*
X887300Y148000D02*
D03*
X912700D02*
D03*
Y244000D02*
D03*
X887300D02*
D03*
X817300Y148000D02*
D03*
X842700D02*
D03*
Y244000D02*
D03*
X817300D02*
D03*
X772700Y702000D02*
D03*
X747300D02*
D03*
Y606000D02*
D03*
X772700D02*
D03*
X842700Y702000D02*
D03*
X817300D02*
D03*
Y606000D02*
D03*
X842700D02*
D03*
X912700Y702000D02*
D03*
X887300D02*
D03*
Y606000D02*
D03*
X912700D02*
D03*
X982700Y702000D02*
D03*
X957300D02*
D03*
Y606000D02*
D03*
X982700D02*
D03*
X168700Y657300D02*
D03*
X1267200Y437700D02*
D03*
D23*
X1094000Y190000D02*
D03*
X1126000D02*
D03*
X1148000D02*
D03*
X1170000D02*
D03*
Y250000D02*
D03*
X1148000D02*
D03*
X1126000D02*
D03*
X1094000D02*
D03*
X1232000Y190000D02*
D03*
X1264000D02*
D03*
X1286000D02*
D03*
X1308000D02*
D03*
Y250000D02*
D03*
X1286000D02*
D03*
X1264000D02*
D03*
X1232000D02*
D03*
X1370000Y190000D02*
D03*
X1402000D02*
D03*
X1424000D02*
D03*
X1446000D02*
D03*
Y250000D02*
D03*
X1424000D02*
D03*
X1402000D02*
D03*
X1370000D02*
D03*
X1094000Y600000D02*
D03*
X1126000D02*
D03*
X1148000D02*
D03*
X1170000D02*
D03*
Y660000D02*
D03*
X1148000D02*
D03*
X1126000D02*
D03*
X1094000D02*
D03*
X1232000Y600000D02*
D03*
X1264000D02*
D03*
X1286000D02*
D03*
X1308000D02*
D03*
Y660000D02*
D03*
X1286000D02*
D03*
X1264000D02*
D03*
X1232000D02*
D03*
X1370000Y600000D02*
D03*
X1402000D02*
D03*
X1424000D02*
D03*
X1446000D02*
D03*
Y660000D02*
D03*
X1424000D02*
D03*
X1402000D02*
D03*
X1370000D02*
D03*
D24*
X49049Y310000D02*
D03*
D25*
X101000D02*
D03*
D26*
X1040000Y559000D02*
X1060770D01*
X1198270Y559500D02*
X1198770Y559000D01*
X1180000Y559500D02*
X1198270D01*
X1336270D02*
X1336770Y559000D01*
X1315000Y559500D02*
X1336270D01*
X480000Y310000D02*
Y352000D01*
X465000Y310000D02*
Y358515D01*
X450000Y310000D02*
X450500Y310500D01*
X524300Y575700D02*
X530000Y570000D01*
X232500Y615000D02*
Y670300D01*
X258000Y615000D02*
Y670400D01*
X437500Y377529D02*
Y552000D01*
X359500Y630000D02*
X437500Y552000D01*
X359500Y630000D02*
Y669700D01*
X435000Y310000D02*
Y345000D01*
X431500Y348500D02*
X435000Y345000D01*
X431500Y348500D02*
Y547000D01*
X346500Y632000D02*
X431500Y547000D01*
X450500Y310500D02*
Y364529D01*
X437500Y377529D02*
X450500Y364529D01*
X443500Y380015D02*
X465000Y358515D01*
X443500Y380015D02*
Y557500D01*
X385000Y616000D02*
X443500Y557500D01*
X385000Y616000D02*
Y669600D01*
X449500Y382500D02*
X480000Y352000D01*
X449500Y382500D02*
Y620500D01*
X346500Y632000D02*
Y657300D01*
Y682700D02*
X359500Y669700D01*
X371900Y682700D02*
X385000Y669600D01*
X258000Y670400D02*
X270300Y682700D01*
X232500Y670300D02*
X244900Y682700D01*
X979500Y271000D02*
X1005000D01*
X982000Y271000D02*
Y454500D01*
X1005000Y477500D01*
Y579000D01*
Y610000D01*
X400000Y430000D02*
Y525000D01*
X390000Y535000D02*
X400000Y525000D01*
X390000Y420000D02*
Y520000D01*
X425000Y590000D02*
Y613500D01*
X397300Y641200D02*
X425000Y613500D01*
X397300Y641200D02*
Y657300D01*
X440000Y590000D02*
Y615000D01*
X422700Y632300D02*
X440000Y615000D01*
X422700Y632300D02*
Y657300D01*
X436000Y634000D02*
X449500Y620500D01*
X436000Y634000D02*
Y669400D01*
X422700Y682700D02*
X436000Y669400D01*
X473500Y590000D02*
Y629500D01*
X461000Y642000D02*
X473500Y629500D01*
X460000Y590000D02*
Y627500D01*
X448100Y639400D02*
X460000Y627500D01*
X448100Y639400D02*
Y657300D01*
X461000Y642000D02*
Y669800D01*
X448100Y682700D02*
X461000Y669800D01*
X486500Y590000D02*
Y669700D01*
X473500Y682700D02*
X486500Y669700D01*
X498900Y566100D02*
X518000Y547000D01*
Y373500D02*
Y547000D01*
X500000Y355500D02*
X518000Y373500D01*
X500000Y340000D02*
Y355500D01*
X524000Y368500D02*
Y552000D01*
X515000Y359500D02*
X524000Y368500D01*
X515000Y340000D02*
Y359500D01*
X512000Y564000D02*
X524000Y552000D01*
X512000Y564000D02*
Y580000D01*
X530000Y340500D02*
Y570000D01*
X219500Y550500D02*
X225000Y545000D01*
X219500Y550500D02*
Y657300D01*
X702500Y420000D02*
X721000D01*
X658000D02*
X676500D01*
X960000Y271000D02*
Y290000D01*
X890000Y271000D02*
Y290000D01*
X820000Y271000D02*
Y290000D01*
X750000Y271000D02*
Y290000D01*
X498900Y566100D02*
Y657300D01*
X512000Y580000D02*
Y669600D01*
X498900Y682700D02*
X512000Y669600D01*
X524300Y575700D02*
Y657300D01*
X629000Y330000D02*
Y351000D01*
X348000Y519000D02*
X348100Y518900D01*
X348000Y258000D02*
X348100Y258100D01*
X217000Y295000D02*
Y313000D01*
X297100D02*
X297300Y312800D01*
X239000Y313000D02*
X297100D01*
X239000D02*
Y338000D01*
X228500Y449500D02*
Y465100D01*
X203000Y424000D02*
X228500Y449500D01*
X203000Y352000D02*
Y424000D01*
Y352000D02*
X217000Y338000D01*
X639000Y246000D02*
X639000Y246000D01*
Y263000D01*
Y286000D01*
X739000Y121000D02*
X750000D01*
X711000Y93000D02*
X739000Y121000D01*
X648000Y93000D02*
X711000D01*
X622600Y67600D02*
X648000Y93000D01*
X803000Y90000D02*
X820000Y107000D01*
Y121000D01*
X880000D02*
X890000D01*
X825800Y66800D02*
X880000Y121000D01*
X622600Y804000D02*
X623000D01*
X1358770Y559000D02*
X1379500D01*
X1390500Y548000D01*
X1241500Y559000D02*
X1252500Y548000D01*
X1220770Y559000D02*
X1241500D01*
X1103500D02*
X1114500Y548000D01*
X1082770Y559000D02*
X1103500D01*
X1379500Y302000D02*
X1390500Y291000D01*
X1411230D01*
X1433230D02*
X1460000D01*
X1295230D02*
X1322000D01*
X1252500D02*
X1273230D01*
X1241500Y302000D02*
X1252500Y291000D01*
X1157230D02*
X1184000D01*
X1114500D02*
X1135230D01*
X1103500Y302000D02*
X1114500Y291000D01*
X982700Y702000D02*
Y728300D01*
X982000Y729000D02*
X982700Y728300D01*
X935000Y702000D02*
X957300D01*
X982700Y579200D02*
Y606000D01*
X982500Y579000D02*
X982700Y579200D01*
X935000Y606000D02*
X957300D01*
X935000Y579000D02*
X960500D01*
X865000D02*
X890500D01*
X865000Y606000D02*
X887300D01*
X912500Y579000D02*
X912700Y579200D01*
Y606000D01*
X865000Y702000D02*
X887300D01*
X912000Y729000D02*
X912700Y728300D01*
Y702000D02*
Y728300D01*
X795000Y579000D02*
X820500D01*
X795000Y606000D02*
X817300D01*
X842500Y579000D02*
X842700Y579200D01*
Y606000D01*
X795000Y702000D02*
X817300D01*
X842000Y729000D02*
X842700Y728300D01*
Y702000D02*
Y728300D01*
X725000Y579000D02*
X750500D01*
X725000Y606000D02*
X747300D01*
X772500Y579000D02*
X772700Y579200D01*
Y606000D01*
X725000Y702000D02*
X747300D01*
X772000Y729000D02*
X772700Y728300D01*
Y702000D02*
Y728300D01*
X982700Y244000D02*
X1005000D01*
X957300Y270800D02*
X957500Y271000D01*
X957300Y244000D02*
Y270800D01*
X982700Y148000D02*
X1005000D01*
X982000Y121000D02*
Y131000D01*
X979000Y134000D02*
X982000Y131000D01*
X960000Y134000D02*
X979000D01*
X957300Y136700D02*
X960000Y134000D01*
X957300Y136700D02*
Y148000D01*
X887300Y136700D02*
Y148000D01*
Y136700D02*
X890000Y134000D01*
X909000D01*
X912000Y131000D01*
Y121000D02*
Y131000D01*
X912700Y148000D02*
X935000D01*
X887300Y244000D02*
Y270800D01*
X887500Y271000D01*
X912700Y244000D02*
X935000D01*
X817300Y136700D02*
Y148000D01*
Y136700D02*
X820000Y134000D01*
X839000D01*
X842000Y131000D01*
Y121000D02*
Y131000D01*
X842700Y148000D02*
X865000D01*
X817300Y244000D02*
Y270800D01*
X817500Y271000D01*
X842700Y244000D02*
X865000D01*
X747300Y136700D02*
Y148000D01*
Y136700D02*
X750000Y134000D01*
X769000D01*
X772000Y131000D01*
Y121000D02*
Y131000D01*
X772700Y148000D02*
X795000D01*
X747300Y244000D02*
Y270800D01*
X747500Y271000D01*
X772700Y244000D02*
X795000D01*
X653000Y343000D02*
X664999D01*
X676500Y442000D02*
X702500D01*
X714000Y368400D02*
X738400D01*
X751000Y381000D01*
Y412300D01*
Y437700D01*
X714000Y381100D02*
X731100D01*
X735000Y385000D01*
Y395000D01*
X664999Y368400D02*
X680400D01*
X645000Y351000D02*
X653000Y343000D01*
X629000Y351000D02*
X645000D01*
X629000Y372336D02*
Y388500D01*
X765000Y625000D02*
Y630000D01*
Y625000D02*
X772700Y617300D01*
Y606000D02*
Y617300D01*
X842700Y606000D02*
Y617300D01*
X835000Y625000D02*
X842700Y617300D01*
X835000Y625000D02*
Y630000D01*
X912700Y606000D02*
Y617300D01*
X905000Y625000D02*
X912700Y617300D01*
X905000Y625000D02*
Y630000D01*
X982700Y606000D02*
Y617300D01*
X975000Y625000D02*
X982700Y617300D01*
X975000Y625000D02*
Y630000D01*
X747300Y232700D02*
Y244000D01*
Y232700D02*
X755000Y225000D01*
Y220000D02*
Y225000D01*
X817300Y232700D02*
Y244000D01*
Y232700D02*
X825000Y225000D01*
Y220000D02*
Y225000D01*
X887300Y232700D02*
Y244000D01*
Y232700D02*
X895000Y225000D01*
Y220000D02*
Y225000D01*
X957300Y232700D02*
Y244000D01*
Y232700D02*
X965000Y225000D01*
Y220000D02*
Y225000D01*
X927400Y46000D02*
Y69900D01*
X960000Y102500D01*
Y121000D01*
X825800Y46000D02*
Y66800D01*
X622600Y46000D02*
Y67600D01*
X724200Y46000D02*
Y66200D01*
X748000Y90000D01*
X803000D01*
X960000Y729000D02*
Y748000D01*
X978200Y766200D01*
Y804000D01*
X890000Y729000D02*
Y758500D01*
X876600Y771900D02*
X890000Y758500D01*
X876600Y771900D02*
Y804000D01*
X775000Y774000D02*
X820000Y729000D01*
X775000Y774000D02*
Y804000D01*
X714500Y729000D02*
X750000D01*
X673400Y770100D02*
X714500Y729000D01*
X673400Y770100D02*
Y804000D01*
X680400Y368400D02*
X702500Y390500D01*
Y420000D01*
X664999Y381100D02*
X676100D01*
X676500Y400000D02*
Y420000D01*
X676100Y381100D02*
X680000Y385000D01*
Y396500D01*
X676500Y400000D02*
X680000Y396500D01*
X676500Y442000D02*
Y460000D01*
X795000Y579000D02*
X795000Y579000D01*
X702500Y442000D02*
X714000D01*
X725000Y453000D01*
Y579000D01*
X909500Y271000D02*
X935000D01*
X839500D02*
X865000D01*
X769500D02*
X795000D01*
X575100Y584900D02*
Y657300D01*
Y584900D02*
X580000Y580000D01*
Y579500D02*
Y580000D01*
X549700Y682700D02*
X562500Y669900D01*
Y580000D02*
Y669900D01*
X600500Y590000D02*
Y657300D01*
X270300D02*
X282500Y669500D01*
X307900D01*
X321100Y682700D01*
X638600Y670000D02*
X651300Y657300D01*
X587800Y670000D02*
X638600D01*
X575100Y682700D02*
X587800Y670000D01*
D27*
X297000Y519000D02*
X319000D01*
X348100Y465200D02*
Y518900D01*
Y258100D02*
Y312800D01*
X378000Y258000D02*
X403000D01*
D28*
X1300000Y437500D02*
X1305000Y442500D01*
Y575000D01*
X1315000Y585000D01*
X1339000D01*
X551300Y465200D02*
Y600000D01*
X570000Y330000D02*
Y336500D01*
Y215000D02*
Y330000D01*
X551300Y355200D02*
Y465200D01*
Y355200D02*
X570000Y336500D01*
X1370000Y660000D02*
X1376000D01*
X1380000Y656000D01*
Y580000D02*
Y656000D01*
X1370000Y643000D02*
Y660000D01*
X1367000Y640000D02*
X1370000Y643000D01*
X1342000Y640000D02*
X1367000D01*
X1339000Y643000D02*
X1342000Y640000D01*
X1339000Y643000D02*
Y656000D01*
Y585000D02*
Y604049D01*
X1343000Y620000D02*
X1367000D01*
X1339000Y616000D02*
X1343000Y620000D01*
X1339000Y604049D02*
Y616000D01*
X1367000Y620000D02*
X1370000Y617000D01*
Y600000D02*
Y617000D01*
X1380000Y580000D02*
X1388000Y572000D01*
X1400000D01*
X1250000D02*
X1262000D01*
X1242000Y580000D02*
X1250000Y572000D01*
X1232000Y600000D02*
Y617000D01*
X1229000Y620000D02*
X1232000Y617000D01*
X1201000Y604049D02*
Y616000D01*
X1205000Y620000D01*
X1229000D01*
X1201000Y585000D02*
Y604049D01*
Y643000D02*
Y656000D01*
Y643000D02*
X1204000Y640000D01*
X1229000D01*
X1232000Y643000D01*
Y660000D01*
X1242000Y580000D02*
Y656000D01*
X1238000Y660000D02*
X1242000Y656000D01*
X1232000Y660000D02*
X1238000D01*
X1112000Y572000D02*
X1124000D01*
X1104000Y580000D02*
X1112000Y572000D01*
X1094000Y600000D02*
Y617000D01*
X1091000Y620000D02*
X1094000Y617000D01*
X1063000Y604049D02*
Y616000D01*
X1067000Y620000D01*
X1091000D01*
X1063000Y585000D02*
Y604049D01*
Y643000D02*
Y656000D01*
Y643000D02*
X1066000Y640000D01*
X1091000D01*
X1094000Y643000D01*
Y660000D01*
X1104000Y580000D02*
Y656000D01*
X1100000Y660000D02*
X1104000Y656000D01*
X1094000Y660000D02*
X1100000D01*
X1271500Y548000D02*
X1290000D01*
X1290000Y548000D01*
X1428000Y548000D02*
X1428000Y548000D01*
X1409500Y548000D02*
X1428000D01*
X1152000D02*
X1152000Y548000D01*
X1133500Y548000D02*
X1152000D01*
X1370000Y190000D02*
Y207000D01*
X1367000Y210000D02*
X1370000Y207000D01*
X1339000Y194049D02*
Y206000D01*
X1343000Y210000D01*
X1367000D01*
X1339000Y175000D02*
Y194049D01*
Y233000D02*
Y246000D01*
Y233000D02*
X1342000Y230000D01*
X1367000D01*
X1370000Y233000D01*
Y250000D01*
Y278000D01*
X1370000Y278000D02*
X1370000Y278000D01*
X1339000Y302000D02*
X1360500D01*
X1339000Y302000D02*
X1339000Y302000D01*
X1201000Y302000D02*
X1201000Y302000D01*
X1222500D01*
X1232000Y278000D02*
X1232000Y278000D01*
Y250000D02*
Y278000D01*
Y233000D02*
Y250000D01*
X1229000Y230000D02*
X1232000Y233000D01*
X1204000Y230000D02*
X1229000D01*
X1201000Y233000D02*
X1204000Y230000D01*
X1201000Y233000D02*
Y246000D01*
Y175000D02*
Y194049D01*
X1205000Y210000D02*
X1229000D01*
X1201000Y206000D02*
X1205000Y210000D01*
X1201000Y194049D02*
Y206000D01*
X1229000Y210000D02*
X1232000Y207000D01*
Y190000D02*
Y207000D01*
X1063000Y302000D02*
X1063000Y302000D01*
X1084500D01*
X1094000Y278000D02*
X1094000Y278000D01*
Y250000D02*
Y278000D01*
Y233000D02*
Y250000D01*
X1091000Y230000D02*
X1094000Y233000D01*
X1066000Y230000D02*
X1091000D01*
X1063000Y233000D02*
X1066000Y230000D01*
X1063000Y233000D02*
Y246000D01*
Y175000D02*
Y194049D01*
X1067000Y210000D02*
X1091000D01*
X1063000Y206000D02*
X1067000Y210000D01*
X1063000Y194049D02*
Y206000D01*
X1091000Y210000D02*
X1094000Y207000D01*
Y190000D02*
Y207000D01*
D29*
X699700Y355700D02*
X714000D01*
X686000Y342000D02*
X699700Y355700D01*
X686000Y309000D02*
Y342000D01*
X692000Y309000D02*
Y335000D01*
X700000Y343000D01*
X714000D01*
X677000Y286000D02*
X686000Y295000D01*
Y309000D01*
X692000Y278000D02*
Y309000D01*
X677000Y263000D02*
X692000Y278000D01*
X660336Y286000D02*
X677000D01*
X660336Y263000D02*
X677000D01*
D30*
X1446000Y600000D02*
Y660000D01*
Y711000D01*
X1424000Y600000D02*
Y660000D01*
X1402000Y600000D02*
Y660000D01*
X1308000Y600000D02*
Y660000D01*
Y681000D01*
X1286000Y600000D02*
Y660000D01*
Y696500D01*
X1264000Y600000D02*
Y660000D01*
X1170000Y600000D02*
Y660000D01*
X1148000Y600000D02*
Y660000D01*
X1126000Y600000D02*
Y660000D01*
X1101700Y113200D02*
X1126000Y137500D01*
Y190000D01*
Y250000D01*
X1148000Y190000D02*
Y250000D01*
X1170000Y190000D02*
Y250000D01*
X1264000Y124000D02*
Y190000D01*
Y250000D01*
X1286000Y190000D02*
Y250000D01*
X1308000Y190000D02*
Y250000D01*
X1402000Y84000D02*
Y190000D01*
Y250000D01*
X1424000Y119000D02*
Y190000D01*
Y250000D01*
X1446000Y133500D02*
Y190000D01*
Y250000D01*
Y711000D02*
X1508100Y773100D01*
Y804000D01*
X1424000Y660000D02*
Y738000D01*
X1457300Y771300D01*
Y804000D01*
X1402000Y660000D02*
Y756500D01*
X1406500Y761000D01*
Y804000D01*
X1308000Y681000D02*
X1356700Y729700D01*
Y804000D01*
X1286000Y696500D02*
X1305900Y716400D01*
Y804000D01*
X1264000Y660000D02*
Y739000D01*
X1255100Y747900D02*
X1264000Y739000D01*
X1255100Y747900D02*
Y804000D01*
X1126000Y660000D02*
Y716500D01*
X1101700Y740800D02*
X1126000Y716500D01*
X1101700Y740800D02*
Y804000D01*
X1148000Y660000D02*
Y760000D01*
X1152500Y764500D01*
Y804000D01*
X1170000Y660000D02*
Y712000D01*
X1203300Y745300D01*
Y804000D01*
X1446000Y133500D02*
X1508100Y71400D01*
Y46000D02*
Y71400D01*
X1424000Y119000D02*
X1457300Y85700D01*
Y46000D02*
Y85700D01*
X1402000Y84000D02*
X1406500Y79500D01*
Y46000D02*
Y79500D01*
X1255100Y115100D02*
X1264000Y124000D01*
X1255100Y46000D02*
Y115100D01*
X1286000Y138500D02*
Y190000D01*
Y138500D02*
X1305900Y118600D01*
Y46000D02*
Y118600D01*
X1308000Y156000D02*
Y190000D01*
Y156000D02*
X1356700Y107300D01*
Y46000D02*
Y107300D01*
X1152500Y46000D02*
X1153500Y47000D01*
X1101700Y46000D02*
Y113200D01*
X1170000Y140500D02*
Y190000D01*
Y140500D02*
X1203300Y107200D01*
Y46000D02*
Y107200D01*
X1148000Y97000D02*
Y190000D01*
Y97000D02*
X1153500Y91500D01*
Y47000D02*
Y91500D01*
D31*
X1203300Y46000D02*
D03*
X1101700D02*
D03*
X1152500D02*
D03*
X1356700D02*
D03*
X1255100D02*
D03*
X1305900D02*
D03*
X1508100D02*
D03*
X1406500D02*
D03*
X1457300D02*
D03*
X1406500Y804000D02*
D03*
X1508100D02*
D03*
X1457300D02*
D03*
X1255100D02*
D03*
X1356700D02*
D03*
X1305900D02*
D03*
X1101700D02*
D03*
X1203300D02*
D03*
X1152500D02*
D03*
X346700D02*
D03*
X448300D02*
D03*
X397500D02*
D03*
X194300D02*
D03*
X295900D02*
D03*
X245100D02*
D03*
X41900D02*
D03*
X143500D02*
D03*
X92700D02*
D03*
X448300Y46000D02*
D03*
X346700D02*
D03*
X397500D02*
D03*
X295900D02*
D03*
X194300D02*
D03*
X245100D02*
D03*
X143500D02*
D03*
X41900D02*
D03*
X92700D02*
D03*
X978200D02*
D03*
X876600D02*
D03*
X927400D02*
D03*
X825800D02*
D03*
X724200D02*
D03*
X775000D02*
D03*
X673400D02*
D03*
X571800D02*
D03*
X622600D02*
D03*
X571800Y804000D02*
D03*
X673400D02*
D03*
X622600D02*
D03*
X724200D02*
D03*
X825800D02*
D03*
X775000D02*
D03*
X876600D02*
D03*
X978200D02*
D03*
X927400D02*
D03*
D32*
X153500Y388900D02*
D03*
D33*
X228500D02*
D03*
Y465100D02*
D03*
X153500D02*
D03*
X194100Y657300D02*
D03*
X244900D02*
D03*
X219500D02*
D03*
X295700D02*
D03*
X270300D02*
D03*
X346500D02*
D03*
X321100D02*
D03*
X219500Y682700D02*
D03*
X270300D02*
D03*
X244900D02*
D03*
X194100D02*
D03*
X168700D02*
D03*
X295700D02*
D03*
X371900Y657300D02*
D03*
X321100Y682700D02*
D03*
X371900D02*
D03*
X346500D02*
D03*
X473500Y657300D02*
D03*
X524300D02*
D03*
X498900D02*
D03*
X397300D02*
D03*
X448100D02*
D03*
X422700D02*
D03*
X549700D02*
D03*
X575100D02*
D03*
X625900D02*
D03*
X651300D02*
D03*
X473500Y682700D02*
D03*
X524300D02*
D03*
X498900D02*
D03*
X397300D02*
D03*
X448100D02*
D03*
X422700D02*
D03*
X549700D02*
D03*
X600500Y657300D02*
D03*
X575100Y682700D02*
D03*
X625900D02*
D03*
X600500D02*
D03*
X651300D02*
D03*
X1114800Y412300D02*
D03*
Y437700D02*
D03*
X1140200Y412300D02*
D03*
Y437700D02*
D03*
X1165600Y412300D02*
D03*
Y437700D02*
D03*
X1191000Y412300D02*
D03*
Y437700D02*
D03*
X1216400Y412300D02*
D03*
Y437700D02*
D03*
X1241800Y412300D02*
D03*
Y437700D02*
D03*
X1267200Y412300D02*
D03*
D34*
X297300Y312800D02*
D03*
D35*
X322700D02*
D03*
X348100D02*
D03*
X500500D02*
D03*
X551300D02*
D03*
Y465200D02*
D03*
X500500D02*
D03*
X348100D02*
D03*
X322700D02*
D03*
D36*
X1020000Y425000D02*
D03*
X751000Y412300D02*
D03*
Y437700D02*
D03*
D37*
X1490000Y160000D02*
D03*
Y690000D02*
D03*
X60000Y160000D02*
D03*
Y690000D02*
D03*
D38*
X700000Y670000D02*
D03*
X120000Y180000D02*
D03*
X700000D02*
D03*
D39*
X232500Y615000D02*
D03*
X258000D02*
D03*
X1005000Y579000D02*
D03*
Y610000D02*
D03*
X390000Y535000D02*
D03*
Y520000D02*
D03*
X425000Y590000D02*
D03*
X440000D02*
D03*
X473500D02*
D03*
X460000D02*
D03*
X486500D02*
D03*
X400000Y430000D02*
D03*
X390000Y420000D02*
D03*
X225000Y545000D02*
D03*
X297000Y519000D02*
D03*
X721000Y420000D02*
D03*
X658000D02*
D03*
X435000Y310000D02*
D03*
X450000D02*
D03*
X465000D02*
D03*
X480000D02*
D03*
X500000Y340000D02*
D03*
X515000D02*
D03*
X530000Y340500D02*
D03*
X960000Y290000D02*
D03*
X890000D02*
D03*
X820000D02*
D03*
X750000D02*
D03*
X1300000Y437500D02*
D03*
X551300Y600000D02*
D03*
X570000Y330000D02*
D03*
X629000D02*
D03*
X570000Y215000D02*
D03*
X217000Y295000D02*
D03*
X129000Y330000D02*
D03*
X149000D02*
D03*
X169000D02*
D03*
Y310000D02*
D03*
X149000D02*
D03*
X129000D02*
D03*
Y290000D02*
D03*
X149000D02*
D03*
X169000D02*
D03*
X403000Y258000D02*
D03*
X639000Y246000D02*
D03*
X1339000Y585000D02*
D03*
X1201000D02*
D03*
X1063000D02*
D03*
X1290000Y548000D02*
D03*
X1428000D02*
D03*
X1152000D02*
D03*
X1339000Y175000D02*
D03*
X1460000Y291000D02*
D03*
X1339000Y302000D02*
D03*
X1201000D02*
D03*
X1322000Y291000D02*
D03*
X1201000Y175000D02*
D03*
X1063000Y302000D02*
D03*
X1184000Y291000D02*
D03*
X1063000Y175000D02*
D03*
X935000Y702000D02*
D03*
Y606000D02*
D03*
Y579000D02*
D03*
X865000D02*
D03*
Y606000D02*
D03*
Y702000D02*
D03*
X795000Y579000D02*
D03*
Y606000D02*
D03*
Y702000D02*
D03*
X725000Y579000D02*
D03*
Y606000D02*
D03*
Y702000D02*
D03*
X1005000Y271000D02*
D03*
Y244000D02*
D03*
Y148000D02*
D03*
X935000D02*
D03*
Y244000D02*
D03*
Y271000D02*
D03*
X865000Y148000D02*
D03*
Y244000D02*
D03*
Y271000D02*
D03*
X795000Y148000D02*
D03*
Y244000D02*
D03*
X735000Y395000D02*
D03*
X629000Y388500D02*
D03*
X765000Y630000D02*
D03*
X835000D02*
D03*
X905000D02*
D03*
X975000D02*
D03*
X755000Y220000D02*
D03*
X825000D02*
D03*
X895000D02*
D03*
X965000D02*
D03*
X200000Y519000D02*
D03*
X170000Y535000D02*
D03*
X185000D02*
D03*
X200000D02*
D03*
X185000Y519000D02*
D03*
X170000D02*
D03*
X676500Y460000D02*
D03*
X795000Y271000D02*
D03*
X1040000Y559000D02*
D03*
X580000Y579500D02*
D03*
X562500Y580000D02*
D03*
X1180000Y559500D02*
D03*
X1315000D02*
D03*
X600500Y590000D02*
D03*
M02*
