M48
;Layer_Color=9474304
;FILE_FORMAT=4:4
METRIC,LZ
;TYPE=PLATED
T1F00S00C0.3000
T2F00S00C0.8000
T3F00S00C0.9000
T4F00S00C1.0000
T5F00S00C1.5000
T6F00S00C2.7500
T7F00S00C3.5000
%
T01
X01339Y00175
Y00302
X01322Y00291
X0146
X013Y004375
X01201Y00302
X01184Y00291
X01063Y00302
X01005Y00271
Y00244
X00965Y0022
X00935Y00244
Y00271
X0096Y0029
X0089
X00895Y0022
X00935Y00148
X01005
X01063Y00175
X01201
X00865Y00148
X00795
Y00244
Y00271
X0082Y0029
X00865Y00271
Y00244
X00825Y0022
X00755
X0075Y0029
X00735Y00395
X00721Y0042
X00658
X006765Y0046
X00629Y003885
Y0033
X0057
X0053Y003405
X00515Y0034
X005
X0057Y00215
X00639Y00246
X0048Y0031
X00465
X0045
X00435
X00403Y00258
X0039Y0042
X004Y0043
X00217Y00295
X00169Y0029
Y0031
Y0033
X00149
Y0031
Y0029
X00129
Y0031
Y0033
X0017Y00519
X00185
X002
Y00535
X00185
X0017
X00225Y00545
X002325Y00615
X00258
X00297Y00519
X0039Y0052
Y00535
X00425Y0059
X0044
X0046
X004735
X004865
X005513Y006
X005625Y0058
X0058Y005795
X006005Y0059
X00725Y00579
Y00606
X00765Y0063
X00795Y00606
Y00579
X00865
Y00606
X00835Y0063
X00865Y00702
X00795
X00725
X00935
Y00606
Y00579
X01005
Y0061
X00975Y0063
X00905
X01063Y00585
X0104Y00559
X01152Y00548
X0118Y005595
X01201Y00585
X0129Y00548
X01315Y005595
X01339Y00585
X01428Y00548
T02
X005005Y003128
X005513
Y004652
X005005
X003481
X003227
X002285Y004651
X001535
Y003889
X002285
X002973Y003128
X003227
X003481
X003465Y006573
X003211
X002957
X002703
X002449
X002195
X001941
X001687
Y006827
X001941
X002195
X002449
X002703
X002957
X003211
X003465
X003719
Y006573
X003973
X004227
X004481
X004735
Y006827
X004481
X004227
X003973
X004989
Y006573
X005243
X005497
X005751
X006005
X006259
X006513
Y006827
X006259
X006005
X005751
X005497
X005243
T03
X0102Y00425
X00751Y004123
Y004377
T04
X011148Y004123
Y004377
X011402
Y004123
X011656
Y004377
X01191
Y004123
X012164
Y004377
X012418
Y004123
X012672
Y004377
T05
X000419Y00046
X000927
X001435
X001943
X002451
X002959
X003467
X003975
X004483
X005718
X006226
X006734
X007242
X00775
X008258
X008766
X009274
X009782
X011017
X011525
X012033
X012551
X013059
X013567
X014065
X014573
X015081
X000927Y00804
X000419
X001435
X001943
X002451
X002959
X003467
X003975
X004483
X005718
X006226
X006734
X007242
X00775
X008258
X008766
X009274
X009782
X011017
X011525
X012033
X012551
X013059
X013567
X014065
X014573
X015081
T06
X007Y0018
X0012
X007Y0067
T07
X0149Y0016
X0006
Y0069
X0149
M30
